<mxfile host="app.diagrams.net" modified="2024-04-02T14:22:48.311Z" agent="Mozilla/5.0 (Windows NT 10.0; Win64; x64) AppleWebKit/537.36 (KHTML, like Gecko) Chrome/123.0.0.0 Safari/537.36" etag="ilry3Czn_ZF9QS2HFG-E" version="24.2.1" type="device">
  <diagram name="Page-1" id="nYqeFdzucB11UjXvOBFt">
    <mxGraphModel dx="1195" dy="650" grid="1" gridSize="10" guides="1" tooltips="1" connect="1" arrows="1" fold="1" page="1" pageScale="1" pageWidth="850" pageHeight="1100" math="0" shadow="0">
      <root>
        <mxCell id="0" />
        <mxCell id="1" parent="0" />
        <mxCell id="MjGe4R-iKBbEl1AjLe6p-1" value="Raw DB" style="swimlane;whiteSpace=wrap;html=1;" vertex="1" parent="1">
          <mxGeometry x="325" y="20" width="200" height="330" as="geometry">
            <mxRectangle x="40" y="50" width="140" height="30" as="alternateBounds" />
          </mxGeometry>
        </mxCell>
        <mxCell id="MjGe4R-iKBbEl1AjLe6p-2" value="first_name" style="text;html=1;align=center;verticalAlign=middle;resizable=0;points=[];autosize=1;strokeColor=none;fillColor=none;" vertex="1" parent="MjGe4R-iKBbEl1AjLe6p-1">
          <mxGeometry x="60" y="30" width="80" height="30" as="geometry" />
        </mxCell>
        <mxCell id="MjGe4R-iKBbEl1AjLe6p-3" value="last_name" style="text;html=1;align=center;verticalAlign=middle;resizable=0;points=[];autosize=1;strokeColor=none;fillColor=none;" vertex="1" parent="MjGe4R-iKBbEl1AjLe6p-1">
          <mxGeometry x="60" y="60" width="80" height="30" as="geometry" />
        </mxCell>
        <mxCell id="MjGe4R-iKBbEl1AjLe6p-4" value="personal_number" style="text;html=1;align=center;verticalAlign=middle;resizable=0;points=[];autosize=1;strokeColor=none;fillColor=none;" vertex="1" parent="MjGe4R-iKBbEl1AjLe6p-1">
          <mxGeometry x="40" y="90" width="120" height="30" as="geometry" />
        </mxCell>
        <mxCell id="MjGe4R-iKBbEl1AjLe6p-5" value="birthdate" style="text;html=1;align=center;verticalAlign=middle;resizable=0;points=[];autosize=1;strokeColor=none;fillColor=none;" vertex="1" parent="MjGe4R-iKBbEl1AjLe6p-1">
          <mxGeometry x="65" y="120" width="70" height="30" as="geometry" />
        </mxCell>
        <mxCell id="MjGe4R-iKBbEl1AjLe6p-6" value="address" style="text;html=1;align=center;verticalAlign=middle;resizable=0;points=[];autosize=1;strokeColor=none;fillColor=none;" vertex="1" parent="MjGe4R-iKBbEl1AjLe6p-1">
          <mxGeometry x="65" y="150" width="70" height="30" as="geometry" />
        </mxCell>
        <mxCell id="MjGe4R-iKBbEl1AjLe6p-7" value="phone_number" style="text;html=1;align=center;verticalAlign=middle;resizable=0;points=[];autosize=1;strokeColor=none;fillColor=none;" vertex="1" parent="MjGe4R-iKBbEl1AjLe6p-1">
          <mxGeometry x="50" y="180" width="100" height="30" as="geometry" />
        </mxCell>
        <mxCell id="MjGe4R-iKBbEl1AjLe6p-8" value="mac_address" style="text;html=1;align=center;verticalAlign=middle;resizable=0;points=[];autosize=1;strokeColor=none;fillColor=none;" vertex="1" parent="MjGe4R-iKBbEl1AjLe6p-1">
          <mxGeometry x="50" y="210" width="100" height="30" as="geometry" />
        </mxCell>
        <mxCell id="MjGe4R-iKBbEl1AjLe6p-9" value="ip_address" style="text;html=1;align=center;verticalAlign=middle;resizable=0;points=[];autosize=1;strokeColor=none;fillColor=none;" vertex="1" parent="MjGe4R-iKBbEl1AjLe6p-1">
          <mxGeometry x="60" y="240" width="80" height="30" as="geometry" />
        </mxCell>
        <mxCell id="MjGe4R-iKBbEl1AjLe6p-10" value="iban" style="text;html=1;align=center;verticalAlign=middle;resizable=0;points=[];autosize=1;strokeColor=none;fillColor=none;" vertex="1" parent="MjGe4R-iKBbEl1AjLe6p-1">
          <mxGeometry x="75" y="270" width="50" height="30" as="geometry" />
        </mxCell>
        <mxCell id="MjGe4R-iKBbEl1AjLe6p-11" value="currency" style="text;html=1;align=center;verticalAlign=middle;resizable=0;points=[];autosize=1;strokeColor=none;fillColor=none;" vertex="1" parent="MjGe4R-iKBbEl1AjLe6p-1">
          <mxGeometry x="65" y="300" width="70" height="30" as="geometry" />
        </mxCell>
        <mxCell id="MjGe4R-iKBbEl1AjLe6p-12" value="" style="whiteSpace=wrap;html=1;aspect=fixed;" vertex="1" parent="1">
          <mxGeometry x="105" y="400" width="640" height="640" as="geometry" />
        </mxCell>
        <mxCell id="MjGe4R-iKBbEl1AjLe6p-13" value="Users" style="swimlane;whiteSpace=wrap;html=1;startSize=23;" vertex="1" parent="1">
          <mxGeometry x="152" y="450" width="178" height="120" as="geometry">
            <mxRectangle x="40" y="50" width="140" height="30" as="alternateBounds" />
          </mxGeometry>
        </mxCell>
        <mxCell id="MjGe4R-iKBbEl1AjLe6p-14" value="first_name" style="text;html=1;align=center;verticalAlign=middle;resizable=0;points=[];autosize=1;strokeColor=none;fillColor=none;" vertex="1" parent="MjGe4R-iKBbEl1AjLe6p-13">
          <mxGeometry x="60" y="60" width="80" height="30" as="geometry" />
        </mxCell>
        <mxCell id="MjGe4R-iKBbEl1AjLe6p-15" value="last_name" style="text;html=1;align=center;verticalAlign=middle;resizable=0;points=[];autosize=1;strokeColor=none;fillColor=none;" vertex="1" parent="MjGe4R-iKBbEl1AjLe6p-13">
          <mxGeometry x="60" y="90" width="80" height="30" as="geometry" />
        </mxCell>
        <mxCell id="MjGe4R-iKBbEl1AjLe6p-24" value="&lt;b&gt;user_id&lt;/b&gt;" style="text;html=1;align=center;verticalAlign=middle;resizable=0;points=[];autosize=1;strokeColor=none;fillColor=none;" vertex="1" parent="MjGe4R-iKBbEl1AjLe6p-13">
          <mxGeometry x="60" y="30" width="70" height="30" as="geometry" />
        </mxCell>
        <mxCell id="MjGe4R-iKBbEl1AjLe6p-67" value="" style="edgeStyle=orthogonalEdgeStyle;rounded=0;orthogonalLoop=1;jettySize=auto;html=1;entryX=-0.033;entryY=0.533;entryDx=0;entryDy=0;entryPerimeter=0;exitX=1.033;exitY=0.333;exitDx=0;exitDy=0;exitPerimeter=0;" edge="1" parent="MjGe4R-iKBbEl1AjLe6p-13" source="MjGe4R-iKBbEl1AjLe6p-24">
          <mxGeometry relative="1" as="geometry">
            <mxPoint x="138" y="50" as="sourcePoint" />
            <mxPoint x="418.02" y="180.99" as="targetPoint" />
            <Array as="points">
              <mxPoint x="278" y="40" />
              <mxPoint x="278" y="181" />
            </Array>
          </mxGeometry>
        </mxCell>
        <mxCell id="MjGe4R-iKBbEl1AjLe6p-28" value="Personal" style="swimlane;whiteSpace=wrap;html=1;" vertex="1" parent="1">
          <mxGeometry x="502" y="450" width="200" height="230" as="geometry">
            <mxRectangle x="40" y="50" width="140" height="30" as="alternateBounds" />
          </mxGeometry>
        </mxCell>
        <mxCell id="MjGe4R-iKBbEl1AjLe6p-31" value="personal_number" style="text;html=1;align=center;verticalAlign=middle;resizable=0;points=[];autosize=1;strokeColor=none;fillColor=none;" vertex="1" parent="MjGe4R-iKBbEl1AjLe6p-28">
          <mxGeometry x="40" y="40" width="120" height="30" as="geometry" />
        </mxCell>
        <mxCell id="MjGe4R-iKBbEl1AjLe6p-32" value="birthdate" style="text;html=1;align=center;verticalAlign=middle;resizable=0;points=[];autosize=1;strokeColor=none;fillColor=none;" vertex="1" parent="MjGe4R-iKBbEl1AjLe6p-28">
          <mxGeometry x="65" y="70" width="70" height="30" as="geometry" />
        </mxCell>
        <mxCell id="MjGe4R-iKBbEl1AjLe6p-33" value="address" style="text;html=1;align=center;verticalAlign=middle;resizable=0;points=[];autosize=1;strokeColor=none;fillColor=none;" vertex="1" parent="MjGe4R-iKBbEl1AjLe6p-28">
          <mxGeometry x="65" y="100" width="70" height="30" as="geometry" />
        </mxCell>
        <mxCell id="MjGe4R-iKBbEl1AjLe6p-34" value="phone_number" style="text;html=1;align=center;verticalAlign=middle;resizable=0;points=[];autosize=1;strokeColor=none;fillColor=none;" vertex="1" parent="MjGe4R-iKBbEl1AjLe6p-28">
          <mxGeometry x="50" y="130" width="100" height="30" as="geometry" />
        </mxCell>
        <mxCell id="MjGe4R-iKBbEl1AjLe6p-41" value="&lt;i style=&quot;&quot;&gt;user_id&lt;/i&gt;" style="text;html=1;align=center;verticalAlign=middle;resizable=0;points=[];autosize=1;strokeColor=none;fillColor=none;" vertex="1" parent="1">
          <mxGeometry x="572" y="610" width="60" height="30" as="geometry" />
        </mxCell>
        <mxCell id="MjGe4R-iKBbEl1AjLe6p-42" value="Computer" style="swimlane;whiteSpace=wrap;html=1;" vertex="1" parent="1">
          <mxGeometry x="152" y="740" width="200" height="150" as="geometry">
            <mxRectangle x="40" y="50" width="140" height="30" as="alternateBounds" />
          </mxGeometry>
        </mxCell>
        <mxCell id="MjGe4R-iKBbEl1AjLe6p-49" value="mac_address" style="text;html=1;align=center;verticalAlign=middle;resizable=0;points=[];autosize=1;strokeColor=none;fillColor=none;" vertex="1" parent="MjGe4R-iKBbEl1AjLe6p-42">
          <mxGeometry x="50" y="40" width="100" height="30" as="geometry" />
        </mxCell>
        <mxCell id="MjGe4R-iKBbEl1AjLe6p-50" value="ip_address" style="text;html=1;align=center;verticalAlign=middle;resizable=0;points=[];autosize=1;strokeColor=none;fillColor=none;" vertex="1" parent="MjGe4R-iKBbEl1AjLe6p-42">
          <mxGeometry x="60" y="70" width="80" height="30" as="geometry" />
        </mxCell>
        <mxCell id="MjGe4R-iKBbEl1AjLe6p-53" value="&lt;i style=&quot;&quot;&gt;user_id&lt;/i&gt;" style="text;html=1;align=center;verticalAlign=middle;resizable=0;points=[];autosize=1;strokeColor=none;fillColor=none;" vertex="1" parent="MjGe4R-iKBbEl1AjLe6p-42">
          <mxGeometry x="70" y="110" width="60" height="30" as="geometry" />
        </mxCell>
        <mxCell id="MjGe4R-iKBbEl1AjLe6p-54" value="Economic" style="swimlane;whiteSpace=wrap;html=1;" vertex="1" parent="1">
          <mxGeometry x="502" y="740" width="200" height="130" as="geometry">
            <mxRectangle x="40" y="50" width="140" height="30" as="alternateBounds" />
          </mxGeometry>
        </mxCell>
        <mxCell id="MjGe4R-iKBbEl1AjLe6p-63" value="iban" style="text;html=1;align=center;verticalAlign=middle;resizable=0;points=[];autosize=1;strokeColor=none;fillColor=none;" vertex="1" parent="MjGe4R-iKBbEl1AjLe6p-54">
          <mxGeometry x="75" y="30" width="50" height="30" as="geometry" />
        </mxCell>
        <mxCell id="MjGe4R-iKBbEl1AjLe6p-64" value="currency" style="text;html=1;align=center;verticalAlign=middle;resizable=0;points=[];autosize=1;strokeColor=none;fillColor=none;" vertex="1" parent="MjGe4R-iKBbEl1AjLe6p-54">
          <mxGeometry x="65" y="60" width="70" height="30" as="geometry" />
        </mxCell>
        <mxCell id="MjGe4R-iKBbEl1AjLe6p-65" value="&lt;i style=&quot;&quot;&gt;user_id&lt;/i&gt;" style="text;html=1;align=center;verticalAlign=middle;resizable=0;points=[];autosize=1;strokeColor=none;fillColor=none;" vertex="1" parent="MjGe4R-iKBbEl1AjLe6p-54">
          <mxGeometry x="70" y="90" width="60" height="30" as="geometry" />
        </mxCell>
        <mxCell id="MjGe4R-iKBbEl1AjLe6p-69" value="" style="edgeStyle=orthogonalEdgeStyle;rounded=0;orthogonalLoop=1;jettySize=auto;html=1;entryX=1.05;entryY=0.633;entryDx=0;entryDy=0;entryPerimeter=0;" edge="1" parent="1" source="MjGe4R-iKBbEl1AjLe6p-24" target="MjGe4R-iKBbEl1AjLe6p-53">
          <mxGeometry relative="1" as="geometry">
            <mxPoint x="337" y="495" as="targetPoint" />
            <Array as="points">
              <mxPoint x="430" y="490" />
              <mxPoint x="430" y="869" />
            </Array>
          </mxGeometry>
        </mxCell>
        <mxCell id="MjGe4R-iKBbEl1AjLe6p-71" value="" style="edgeStyle=orthogonalEdgeStyle;rounded=0;orthogonalLoop=1;jettySize=auto;html=1;entryX=0.017;entryY=0.567;entryDx=0;entryDy=0;entryPerimeter=0;" edge="1" parent="1" source="MjGe4R-iKBbEl1AjLe6p-24" target="MjGe4R-iKBbEl1AjLe6p-65">
          <mxGeometry relative="1" as="geometry">
            <mxPoint x="337" y="495" as="targetPoint" />
            <Array as="points">
              <mxPoint x="430" y="490" />
              <mxPoint x="430" y="847" />
            </Array>
          </mxGeometry>
        </mxCell>
        <mxCell id="MjGe4R-iKBbEl1AjLe6p-72" value="&lt;b&gt;Staging DB&lt;/b&gt;" style="text;strokeColor=none;align=center;fillColor=none;html=1;verticalAlign=middle;whiteSpace=wrap;rounded=0;" vertex="1" parent="1">
          <mxGeometry x="390" y="410" width="80" height="30" as="geometry" />
        </mxCell>
        <mxCell id="MjGe4R-iKBbEl1AjLe6p-73" value="&lt;b&gt;personal_id&lt;/b&gt;" style="text;html=1;align=center;verticalAlign=middle;resizable=0;points=[];autosize=1;strokeColor=none;fillColor=none;" vertex="1" parent="1">
          <mxGeometry x="557" y="640" width="90" height="30" as="geometry" />
        </mxCell>
      </root>
    </mxGraphModel>
  </diagram>
</mxfile>
